<svg xmlns="http://www.w3.org/2000/svg" xmlns:xlink="http://www.w3.org/1999/xlink" viewBox="0 0 59.48 89.26"><defs><style>.cls-1{isolation:isolate;}.cls-2{opacity:0.3;}.cls-3{fill:#abb9c2;}.cls-4{fill:#f6f9fb;}.cls-5{fill:#36bcdc;}.cls-6{opacity:0.6;}.cls-7{fill:#3561ab;}.cls-8{fill:none;stroke-miterlimit:10;stroke-width:1.66px;mix-blend-mode:overlay;stroke:url(#linear-gradient);}.cls-8,.cls-9{opacity:0.5;}.cls-9{fill:url(#linear-gradient-2);}.cls-10{fill:#fff;}</style><linearGradient id="linear-gradient" x1="9.45" y1="10.65" x2="50.03" y2="80.94" gradientUnits="userSpaceOnUse"><stop offset="0" stop-color="#fff" stop-opacity="0.25"/><stop offset="0.07" stop-color="#fff" stop-opacity="0.28"/><stop offset="0.49" stop-color="#fff" stop-opacity="0.45"/><stop offset="0.81" stop-color="#fff" stop-opacity="0.56"/><stop offset="1" stop-color="#fff" stop-opacity="0.6"/></linearGradient><linearGradient id="linear-gradient-2" x1="-2.36" y1="27.27" x2="61.84" y2="64.33" gradientUnits="userSpaceOnUse"><stop offset="0" stop-color="#36bcdc"/><stop offset="0.09" stop-color="#36b8da" stop-opacity="0.96"/><stop offset="0.25" stop-color="#36aed5" stop-opacity="0.85"/><stop offset="0.44" stop-color="#369ecc" stop-opacity="0.67"/><stop offset="0.67" stop-color="#3587bf" stop-opacity="0.42"/><stop offset="0.92" stop-color="#356ab0" stop-opacity="0.1"/><stop offset="1" stop-color="#3561ab" stop-opacity="0"/></linearGradient></defs><g class="cls-1"><g id="Layer_2" data-name="Layer 2"><g id="Layer_1-2" data-name="Layer 1"><g class="cls-2"><rect class="cls-3" x="4.41" y="1.49" width="1.1" height="87.78"/></g><g class="cls-2"><rect class="cls-3" x="7.16" y="1.49" width="1.1" height="87.78"/></g><g class="cls-2"><rect class="cls-3" x="9.92" y="1.49" width="1.1" height="87.78"/></g><g class="cls-2"><rect class="cls-3" x="12.67" y="1.49" width="1.1" height="87.78"/></g><g class="cls-2"><rect class="cls-3" x="15.42" y="1.49" width="1.1" height="87.78"/></g><g class="cls-2"><text/></g><g class="cls-2"><rect class="cls-3" x="20.93" y="1.49" width="1.1" height="87.78"/></g><g class="cls-2"><rect class="cls-3" x="18.17" y="1.49" width="1.1" height="87.78"/></g><g class="cls-2"><rect class="cls-3" x="23.68" y="1.49" width="1.1" height="87.78"/></g><g class="cls-2"><rect class="cls-3" x="26.44" y="1.49" width="1.1" height="87.78"/></g><g class="cls-2"><rect class="cls-3" x="29.19" y="1.49" width="1.1" height="87.78"/></g><g class="cls-2"><rect class="cls-3" x="31.94" y="1.49" width="1.1" height="87.78"/></g><g class="cls-2"><rect class="cls-3" x="34.7" y="1.49" width="1.1" height="87.78"/></g><g class="cls-2"><rect class="cls-3" x="37.45" y="1.49" width="1.1" height="87.78"/></g><g class="cls-2"><rect class="cls-3" x="40.2" y="1.49" width="1.1" height="87.78"/></g><g class="cls-2"><rect class="cls-3" x="42.96" y="1.49" width="1.1" height="87.78"/></g><g class="cls-2"><rect class="cls-3" x="45.71" y="1.49" width="1.1" height="87.78"/></g><g class="cls-2"><rect class="cls-3" x="48.46" y="1.49" width="1.1" height="87.78"/></g><g class="cls-2"><rect class="cls-3" x="51.22" y="1.49" width="1.1" height="87.78"/></g><g class="cls-2"><rect class="cls-3" x="53.97" y="1.49" width="1.1" height="87.78"/></g><path class="cls-4" d="M59.47,11c0-4,.38-4.32-3.6-4.32H3.61c-4,0-3.6.35-3.6,4.32V79.71c0,4-.38,4.31,3.6,4.31H55.87c4,0,3.6-.34,3.6-4.31Z"/><path class="cls-5" d="M52,20.05c0-3,.28-3.24-2.7-3.24H10.14c-3,0-2.7.26-2.7,3.24v51.5c0,3-.28,3.23,2.7,3.23h39.2c3,0,2.7-.25,2.7-3.23Z"/><g class="cls-6"><path class="cls-5" d="M52,20.05c0-3,.28-3.24-2.7-3.24H10.14c-3,0-2.7.26-2.7,3.24v51.5c0,3-.28,3.23,2.7,3.23h39.2c3,0,2.7-.25,2.7-3.23Z"/></g><path class="cls-7" d="M54.51,17.18c0-3.31.32-3.59-3-3.59H8c-3.31,0-3,.28-3,3.59V74.41C5,77.72,4.65,78,8,78H51.52c3.31,0,3-.28,3-3.59Z"/><path class="cls-8" d="M54.51,17.18c0-3.31.32-3.59-3-3.59H8c-3.31,0-3,.28-3,3.59V74.41C5,77.72,4.65,78,8,78H51.52c3.31,0,3-.28,3-3.59Z"/><path class="cls-9" d="M54.51,17.18c0-3.31.32-3.59-3-3.59H8c-3.31,0-3,.28-3,3.59V74.41C5,77.72,4.65,78,8,78H51.52c3.31,0,3-.28,3-3.59Z"/><path class="cls-5" d="M36.79,63.82H22.7A4.8,4.8,0,0,1,17.9,59V39.7a9.08,9.08,0,0,1,4.56-7.88L27.37,29a4.79,4.79,0,0,1,4.75,0l4.9,2.8a9.08,9.08,0,0,1,4.56,7.88V59A4.8,4.8,0,0,1,36.79,63.82Z"/><path class="cls-4" d="M40.4,65.72H19.08a2.39,2.39,0,0,1-2.39-2.39V39.13a10,10,0,0,1,5-8.68l6.84-3.91a2.41,2.41,0,0,1,2.38,0l6.84,3.91a10,10,0,0,1,5,8.68v24.2A2.4,2.4,0,0,1,40.4,65.72Z"/><path class="cls-10" d="M40.4,65.72H19.08a2.39,2.39,0,0,1-2.39-2.39V39.13a10,10,0,0,1,5-8.68l6.84-3.91a2.41,2.41,0,0,1,2.38,0l6.84,3.91a10,10,0,0,1,5,8.68v24.2A2.4,2.4,0,0,1,40.4,65.72Z"/></g></g></g></svg>